<?xml version="1.0" standalone="no"?>
<!DOCTYPE svg PUBLIC "-//W3C//DTD SVG 20010904//EN"
 "http://www.w3.org/TR/2001/REC-SVG-20010904/DTD/svg10.dtd">
<svg version="1.0" xmlns="http://www.w3.org/2000/svg"
 width="500.000000pt" height="500.000000pt" viewBox="0 0 500.000000 500.000000"
 preserveAspectRatio="xMidYMid meet">

<g transform="translate(0.000000,500.000000) scale(0.100000,-0.100000)"
fill="#000000" stroke="none">
<path d="M2200 3040 l0 -90 -90 0 -90 0 0 -550 0 -550 110 0 110 0 0 180 0
180 270 0 270 0 0 85 0 85 90 0 90 0 0 285 0 285 -90 0 -90 0 0 90 0 90 -290
0 -290 0 0 -90z m540 -375 l0 -245 -250 0 -250 0 0 245 0 245 250 0 250 0 0
-245z"/>
<path d="M2080 1665 c0 -8 -7 -15 -15 -15 -12 0 -15 -14 -15 -70 0 -40 4 -70
10 -70 6 0 10 11 10 25 0 22 4 25 36 25 19 0 42 6 50 14 16 16 19 76 4 76 -5
0 -10 7 -10 15 0 10 -11 15 -35 15 -24 0 -35 -5 -35 -15z m70 -50 c0 -34 -1
-35 -41 -35 -33 0 -40 3 -35 16 3 9 6 24 6 35 0 15 7 19 35 19 33 0 35 -2 35
-35z"/>
<path d="M2370 1670 c0 -5 5 -10 10 -10 6 0 10 5 10 10 0 6 -4 10 -10 10 -5 0
-10 -4 -10 -10z"/>
<path d="M2223 1615 c-15 -17 -17 -105 -3 -105 6 0 10 23 10 50 l0 50 35 0
c19 0 35 5 35 10 0 15 -63 11 -77 -5z"/>
<path d="M2370 1570 c0 -33 4 -60 10 -60 6 0 10 27 10 60 0 33 -4 60 -10 60
-6 0 -10 -27 -10 -60z"/>
<path d="M2430 1560 c0 -33 4 -60 10 -60 6 0 10 23 10 50 0 47 2 50 25 50 14
0 25 5 25 10 0 6 -16 10 -35 10 l-35 0 0 -60z"/>
<path d="M2530 1605 c0 -8 9 -15 20 -15 11 0 20 7 20 15 0 8 -9 15 -20 15 -11
0 -20 -7 -20 -15z"/>
<path d="M2653 1605 c-17 -19 -16 -73 1 -91 16 -16 76 -19 76 -4 0 6 7 10 15
10 8 0 15 4 15 9 0 5 -7 11 -15 15 -9 3 -15 0 -15 -9 0 -10 -11 -15 -35 -15
-24 0 -35 5 -35 15 0 9 9 15 25 15 14 0 25 5 25 10 0 6 -11 10 -25 10 -16 0
-25 6 -25 15 0 10 11 15 35 15 19 0 35 5 35 10 0 15 -63 11 -77 -5z"/>
<path d="M2310 1590 c0 -5 5 -10 10 -10 6 0 10 5 10 10 0 6 -4 10 -10 10 -5 0
-10 -4 -10 -10z"/>
<path d="M2500 1545 c0 -25 5 -45 10 -45 6 0 10 20 10 45 0 25 -4 45 -10 45
-5 0 -10 -20 -10 -45z"/>
<path d="M2576 1574 c-12 -31 -7 -74 9 -74 11 0 15 12 15 45 0 45 -12 60 -24
29z"/>
<path d="M2740 1580 c0 -5 5 -10 10 -10 6 0 10 5 10 10 0 6 -4 10 -10 10 -5 0
-10 -4 -10 -10z"/>
</g>
</svg>
